<svg xmlns="http://www.w3.org/2000/svg" xmlns:xlink="http://www.w3.org/1999/xlink" width="140" zoomAndPan="magnify" viewBox="0 0 104.88 30.000001" height="40" preserveAspectRatio="xMidYMid meet" version="1.0"><defs><g/><clipPath id="bade21699d"><path d="M 9 5 L 22 5 L 22 21 L 9 21 Z M 9 5 " clip-rule="nonzero"/></clipPath><clipPath id="2ce7275ef4"><path d="M 21.339844 5.582031 L 20.640625 24.441406 L 1.78125 23.738281 L 2.484375 4.882812 Z M 21.339844 5.582031 " clip-rule="nonzero"/></clipPath><clipPath id="e970ca11f4"><path d="M 21.339844 5.582031 L 20.640625 24.441406 L 1.78125 23.738281 L 2.484375 4.882812 Z M 21.339844 5.582031 " clip-rule="nonzero"/></clipPath><clipPath id="319d45285a"><path d="M 1.632812 8 L 14 8 L 14 24 L 1.632812 24 Z M 1.632812 8 " clip-rule="nonzero"/></clipPath><clipPath id="a7c9783ec4"><path d="M 21.339844 5.582031 L 20.640625 24.441406 L 1.78125 23.738281 L 2.484375 4.882812 Z M 21.339844 5.582031 " clip-rule="nonzero"/></clipPath><clipPath id="2b14b89085"><path d="M 21.339844 5.582031 L 20.640625 24.441406 L 1.78125 23.738281 L 2.484375 4.882812 Z M 21.339844 5.582031 " clip-rule="nonzero"/></clipPath></defs><g clip-path="url(#bade21699d)"><g clip-path="url(#2ce7275ef4)"><g clip-path="url(#e970ca11f4)"><path fill="#05d2ff" d="M 21.226562 8.699219 L 20.792969 20.316406 L 16.613281 19.027344 L 16.828125 13.21875 L 18.308594 13.675781 L 15.390625 9.164062 L 12.207031 11.792969 L 13.6875 12.25 L 13.46875 18.0625 L 9.289062 16.773438 L 9.722656 5.152344 Z M 21.226562 8.699219 " fill-opacity="1" fill-rule="evenodd"/></g></g></g><g clip-path="url(#319d45285a)"><g clip-path="url(#a7c9783ec4)"><g clip-path="url(#2b14b89085)"><path fill="#202020" d="M 1.75 20.324219 L 2.183594 8.707031 L 6.363281 9.992188 L 6.148438 15.804688 L 4.667969 15.347656 L 7.585938 19.859375 L 10.769531 17.230469 L 9.289062 16.773438 L 9.503906 10.960938 L 13.6875 12.25 L 13.253906 23.871094 Z M 1.75 20.324219 " fill-opacity="1" fill-rule="evenodd"/></g></g></g><g fill="#011422" fill-opacity="1"><g transform="translate(23.141644, 18.544618)"><g><path d="M 5.953125 -9.140625 L 5.953125 -7.3125 L 2.75 -7.3125 L 2.75 -5.5 L 5.703125 -5.5 L 5.703125 -3.671875 L 2.75 -3.671875 L 2.75 0 L 0.671875 0 L 0.671875 -9.140625 Z M 5.953125 -9.140625 "/></g></g></g><g fill="#011422" fill-opacity="1"><g transform="translate(29.419989, 18.544618)"><g><path d="M 0.671875 0 L 0.671875 -9.53125 L 2.625 -9.53125 L 2.625 0 Z M 0.671875 0 "/></g></g></g><g fill="#011422" fill-opacity="1"><g transform="translate(32.708645, 18.544618)"><g><path d="M 1.046875 -0.703125 C 0.515625 -1.285156 0.25 -1.992188 0.25 -2.828125 C 0.25 -3.671875 0.515625 -4.382812 1.046875 -4.96875 C 1.578125 -5.550781 2.253906 -5.84375 3.078125 -5.84375 C 3.828125 -5.84375 4.445312 -5.609375 4.9375 -5.140625 L 4.9375 -5.6875 L 6.90625 -5.6875 L 6.90625 0 L 4.96875 0 L 4.96875 -0.640625 L 4.9375 -0.640625 C 4.445312 -0.0976562 3.828125 0.171875 3.078125 0.171875 C 2.253906 0.171875 1.578125 -0.117188 1.046875 -0.703125 Z M 2.71875 -3.796875 C 2.46875 -3.546875 2.34375 -3.222656 2.34375 -2.828125 C 2.34375 -2.441406 2.460938 -2.125 2.703125 -1.875 C 2.941406 -1.625 3.265625 -1.5 3.671875 -1.5 C 4.054688 -1.5 4.367188 -1.625 4.609375 -1.875 C 4.859375 -2.132812 4.984375 -2.457031 4.984375 -2.84375 C 4.984375 -3.226562 4.851562 -3.546875 4.59375 -3.796875 C 4.34375 -4.046875 4.035156 -4.171875 3.671875 -4.171875 C 3.296875 -4.171875 2.976562 -4.046875 2.71875 -3.796875 Z M 2.71875 -3.796875 "/></g></g></g><g fill="#011422" fill-opacity="1"><g transform="translate(40.271447, 18.544618)"><g><path d="M 0.671875 0 L 0.671875 -5.6875 L 2.625 -5.6875 L 2.625 -4.859375 L 2.640625 -4.859375 C 2.660156 -4.890625 2.6875 -4.925781 2.71875 -4.96875 C 2.75 -5.019531 2.820312 -5.097656 2.9375 -5.203125 C 3.050781 -5.316406 3.171875 -5.414062 3.296875 -5.5 C 3.421875 -5.59375 3.582031 -5.671875 3.78125 -5.734375 C 3.976562 -5.804688 4.179688 -5.84375 4.390625 -5.84375 C 4.597656 -5.84375 4.804688 -5.8125 5.015625 -5.75 C 5.222656 -5.695312 5.375 -5.640625 5.46875 -5.578125 L 5.625 -5.5 L 4.8125 -3.828125 C 4.5625 -4.035156 4.21875 -4.140625 3.78125 -4.140625 C 3.550781 -4.140625 3.347656 -4.085938 3.171875 -3.984375 C 3.003906 -3.878906 2.882812 -3.753906 2.8125 -3.609375 C 2.75 -3.460938 2.703125 -3.335938 2.671875 -3.234375 C 2.640625 -3.128906 2.625 -3.046875 2.625 -2.984375 L 2.625 0 Z M 0.671875 0 "/></g></g></g><g fill="#011422" fill-opacity="1"><g transform="translate(45.785757, 18.544618)"><g><path d="M 6.421875 -2.5625 L 2.296875 -2.5625 C 2.296875 -2.164062 2.421875 -1.867188 2.671875 -1.671875 C 2.929688 -1.484375 3.210938 -1.390625 3.515625 -1.390625 C 3.835938 -1.390625 4.085938 -1.429688 4.265625 -1.515625 C 4.453125 -1.609375 4.664062 -1.78125 4.90625 -2.03125 L 6.328125 -1.3125 C 5.734375 -0.320312 4.75 0.171875 3.375 0.171875 C 2.519531 0.171875 1.785156 -0.117188 1.171875 -0.703125 C 0.554688 -1.296875 0.25 -2.003906 0.25 -2.828125 C 0.25 -3.660156 0.554688 -4.367188 1.171875 -4.953125 C 1.785156 -5.546875 2.519531 -5.84375 3.375 -5.84375 C 4.28125 -5.84375 5.015625 -5.582031 5.578125 -5.0625 C 6.140625 -4.539062 6.421875 -3.800781 6.421875 -2.84375 C 6.421875 -2.707031 6.421875 -2.613281 6.421875 -2.5625 Z M 2.34375 -3.65625 L 4.515625 -3.65625 C 4.460938 -3.945312 4.34375 -4.171875 4.15625 -4.328125 C 3.96875 -4.492188 3.726562 -4.578125 3.4375 -4.578125 C 3.113281 -4.578125 2.851562 -4.488281 2.65625 -4.3125 C 2.46875 -4.144531 2.363281 -3.925781 2.34375 -3.65625 Z M 2.34375 -3.65625 "/></g></g></g><g fill="#011422" fill-opacity="1"><g transform="translate(52.462723, 18.544618)"><g><path d="M 0.09375 -7.3125 L 0.09375 -9.140625 L 6.515625 -9.140625 L 6.515625 -7.3125 L 4.34375 -7.3125 L 4.34375 0 L 2.265625 0 L 2.265625 -7.3125 Z M 0.09375 -7.3125 "/></g></g></g><g fill="#011422" fill-opacity="1"><g transform="translate(59.062182, 18.544618)"><g><path d="M 0.671875 0 L 0.671875 -5.6875 L 2.625 -5.6875 L 2.625 -4.859375 L 2.640625 -4.859375 C 2.660156 -4.890625 2.6875 -4.925781 2.71875 -4.96875 C 2.75 -5.019531 2.820312 -5.097656 2.9375 -5.203125 C 3.050781 -5.316406 3.171875 -5.414062 3.296875 -5.5 C 3.421875 -5.59375 3.582031 -5.671875 3.78125 -5.734375 C 3.976562 -5.804688 4.179688 -5.84375 4.390625 -5.84375 C 4.597656 -5.84375 4.804688 -5.8125 5.015625 -5.75 C 5.222656 -5.695312 5.375 -5.640625 5.46875 -5.578125 L 5.625 -5.5 L 4.8125 -3.828125 C 4.5625 -4.035156 4.21875 -4.140625 3.78125 -4.140625 C 3.550781 -4.140625 3.347656 -4.085938 3.171875 -3.984375 C 3.003906 -3.878906 2.882812 -3.753906 2.8125 -3.609375 C 2.75 -3.460938 2.703125 -3.335938 2.671875 -3.234375 C 2.640625 -3.128906 2.625 -3.046875 2.625 -2.984375 L 2.625 0 Z M 0.671875 0 "/></g></g></g><g fill="#011422" fill-opacity="1"><g transform="translate(64.576492, 18.544618)"><g><path d="M 1.046875 -0.703125 C 0.515625 -1.285156 0.25 -1.992188 0.25 -2.828125 C 0.25 -3.671875 0.515625 -4.382812 1.046875 -4.96875 C 1.578125 -5.550781 2.253906 -5.84375 3.078125 -5.84375 C 3.828125 -5.84375 4.445312 -5.609375 4.9375 -5.140625 L 4.9375 -5.6875 L 6.90625 -5.6875 L 6.90625 0 L 4.96875 0 L 4.96875 -0.640625 L 4.9375 -0.640625 C 4.445312 -0.0976562 3.828125 0.171875 3.078125 0.171875 C 2.253906 0.171875 1.578125 -0.117188 1.046875 -0.703125 Z M 2.71875 -3.796875 C 2.46875 -3.546875 2.34375 -3.222656 2.34375 -2.828125 C 2.34375 -2.441406 2.460938 -2.125 2.703125 -1.875 C 2.941406 -1.625 3.265625 -1.5 3.671875 -1.5 C 4.054688 -1.5 4.367188 -1.625 4.609375 -1.875 C 4.859375 -2.132812 4.984375 -2.457031 4.984375 -2.84375 C 4.984375 -3.226562 4.851562 -3.546875 4.59375 -3.796875 C 4.34375 -4.046875 4.035156 -4.171875 3.671875 -4.171875 C 3.296875 -4.171875 2.976562 -4.046875 2.71875 -3.796875 Z M 2.71875 -3.796875 "/></g></g></g><g fill="#011422" fill-opacity="1"><g transform="translate(72.139295, 18.544618)"><g><path d="M 1.046875 -0.703125 C 0.515625 -1.285156 0.25 -1.992188 0.25 -2.828125 C 0.25 -3.671875 0.515625 -4.382812 1.046875 -4.96875 C 1.578125 -5.550781 2.253906 -5.84375 3.078125 -5.84375 C 3.828125 -5.84375 4.445312 -5.609375 4.9375 -5.140625 L 4.9375 -9.53125 L 6.90625 -9.53125 L 6.90625 0 L 4.96875 0 L 4.96875 -0.640625 L 4.9375 -0.640625 C 4.445312 -0.0976562 3.828125 0.171875 3.078125 0.171875 C 2.253906 0.171875 1.578125 -0.117188 1.046875 -0.703125 Z M 2.71875 -3.796875 C 2.46875 -3.546875 2.34375 -3.222656 2.34375 -2.828125 C 2.34375 -2.441406 2.460938 -2.125 2.703125 -1.875 C 2.941406 -1.625 3.265625 -1.5 3.671875 -1.5 C 4.054688 -1.5 4.367188 -1.625 4.609375 -1.875 C 4.859375 -2.132812 4.984375 -2.457031 4.984375 -2.84375 C 4.984375 -3.226562 4.851562 -3.546875 4.59375 -3.796875 C 4.34375 -4.046875 4.035156 -4.171875 3.671875 -4.171875 C 3.296875 -4.171875 2.976562 -4.046875 2.71875 -3.796875 Z M 2.71875 -3.796875 "/></g></g></g><g fill="#011422" fill-opacity="1"><g transform="translate(79.702097, 18.544618)"><g><path d="M 6.421875 -2.5625 L 2.296875 -2.5625 C 2.296875 -2.164062 2.421875 -1.867188 2.671875 -1.671875 C 2.929688 -1.484375 3.210938 -1.390625 3.515625 -1.390625 C 3.835938 -1.390625 4.085938 -1.429688 4.265625 -1.515625 C 4.453125 -1.609375 4.664062 -1.78125 4.90625 -2.03125 L 6.328125 -1.3125 C 5.734375 -0.320312 4.75 0.171875 3.375 0.171875 C 2.519531 0.171875 1.785156 -0.117188 1.171875 -0.703125 C 0.554688 -1.296875 0.25 -2.003906 0.25 -2.828125 C 0.25 -3.660156 0.554688 -4.367188 1.171875 -4.953125 C 1.785156 -5.546875 2.519531 -5.84375 3.375 -5.84375 C 4.28125 -5.84375 5.015625 -5.582031 5.578125 -5.0625 C 6.140625 -4.539062 6.421875 -3.800781 6.421875 -2.84375 C 6.421875 -2.707031 6.421875 -2.613281 6.421875 -2.5625 Z M 2.34375 -3.65625 L 4.515625 -3.65625 C 4.460938 -3.945312 4.34375 -4.171875 4.15625 -4.328125 C 3.96875 -4.492188 3.726562 -4.578125 3.4375 -4.578125 C 3.113281 -4.578125 2.851562 -4.488281 2.65625 -4.3125 C 2.46875 -4.144531 2.363281 -3.925781 2.34375 -3.65625 Z M 2.34375 -3.65625 "/></g></g></g><g fill="#011422" fill-opacity="1"><g transform="translate(86.379063, 18.544618)"><g><path d="M 1.921875 -2.375 C 2.273438 -2.375 2.578125 -2.25 2.828125 -2 C 3.078125 -1.75 3.203125 -1.445312 3.203125 -1.09375 C 3.203125 -0.75 3.078125 -0.453125 2.828125 -0.203125 C 2.578125 0.046875 2.273438 0.171875 1.921875 0.171875 C 1.578125 0.171875 1.28125 0.046875 1.03125 -0.203125 C 0.789062 -0.453125 0.671875 -0.75 0.671875 -1.09375 C 0.671875 -1.445312 0.789062 -1.75 1.03125 -2 C 1.28125 -2.25 1.578125 -2.375 1.921875 -2.375 Z M 1.921875 -2.375 "/></g></g></g><g fill="#011422" fill-opacity="1"><g transform="translate(90.243511, 18.544618)"><g><path d="M 1.046875 -0.703125 C 0.515625 -1.285156 0.25 -1.992188 0.25 -2.828125 C 0.25 -3.671875 0.515625 -4.382812 1.046875 -4.96875 C 1.578125 -5.550781 2.253906 -5.84375 3.078125 -5.84375 C 3.828125 -5.84375 4.445312 -5.609375 4.9375 -5.140625 L 4.9375 -5.6875 L 6.90625 -5.6875 L 6.90625 0 L 4.96875 0 L 4.96875 -0.640625 L 4.9375 -0.640625 C 4.445312 -0.0976562 3.828125 0.171875 3.078125 0.171875 C 2.253906 0.171875 1.578125 -0.117188 1.046875 -0.703125 Z M 2.71875 -3.796875 C 2.46875 -3.546875 2.34375 -3.222656 2.34375 -2.828125 C 2.34375 -2.441406 2.460938 -2.125 2.703125 -1.875 C 2.941406 -1.625 3.265625 -1.5 3.671875 -1.5 C 4.054688 -1.5 4.367188 -1.625 4.609375 -1.875 C 4.859375 -2.132812 4.984375 -2.457031 4.984375 -2.84375 C 4.984375 -3.226562 4.851562 -3.546875 4.59375 -3.796875 C 4.34375 -4.046875 4.035156 -4.171875 3.671875 -4.171875 C 3.296875 -4.171875 2.976562 -4.046875 2.71875 -3.796875 Z M 2.71875 -3.796875 "/></g></g></g><g fill="#011422" fill-opacity="1"><g transform="translate(97.806309, 18.544618)"><g><path d="M 0.859375 -8.84375 C 1.085938 -9.070312 1.359375 -9.1875 1.671875 -9.1875 C 1.992188 -9.1875 2.269531 -9.070312 2.5 -8.84375 C 2.726562 -8.625 2.84375 -8.351562 2.84375 -8.03125 C 2.84375 -7.71875 2.726562 -7.445312 2.5 -7.21875 C 2.269531 -6.988281 1.992188 -6.875 1.671875 -6.875 C 1.359375 -6.875 1.085938 -6.988281 0.859375 -7.21875 C 0.628906 -7.445312 0.515625 -7.71875 0.515625 -8.03125 C 0.515625 -8.351562 0.628906 -8.625 0.859375 -8.84375 Z M 0.671875 -5.6875 L 0.671875 0 L 2.625 0 L 2.625 -5.6875 Z M 0.671875 -5.6875 "/></g></g></g></svg>